<mxfile host="app.diagrams.net" modified="2023-04-23T05:35:42.407Z" agent="5.0 (Macintosh; Intel Mac OS X 10_15_7) AppleWebKit/537.36 (KHTML, like Gecko) Chrome/111.0.0.0 Safari/537.36" etag="gFFeGsmAn_yKFNYxUb45" version="21.0.10" type="github">
  <diagram name="第 1 页" id="fQCR07YGNDjq7KdJFbwK">
    <mxGraphModel dx="2074" dy="1085" grid="1" gridSize="10" guides="1" tooltips="1" connect="1" arrows="1" fold="1" page="1" pageScale="1" pageWidth="2339" pageHeight="3300" math="0" shadow="0">
      <root>
        <mxCell id="0" />
        <mxCell id="1" parent="0" />
        <mxCell id="tjW-KprRPgz_tqJ3C2mB-14" style="edgeStyle=orthogonalEdgeStyle;rounded=0;orthogonalLoop=1;jettySize=auto;html=1;exitX=1;exitY=0.5;exitDx=0;exitDy=0;entryX=0;entryY=0.5;entryDx=0;entryDy=0;" edge="1" parent="1" source="tjW-KprRPgz_tqJ3C2mB-1" target="tjW-KprRPgz_tqJ3C2mB-10">
          <mxGeometry relative="1" as="geometry" />
        </mxCell>
        <mxCell id="tjW-KprRPgz_tqJ3C2mB-1" value="输入框1" style="rounded=0;whiteSpace=wrap;html=1;" vertex="1" parent="1">
          <mxGeometry x="480" y="150" width="200" height="40" as="geometry" />
        </mxCell>
        <mxCell id="tjW-KprRPgz_tqJ3C2mB-16" style="edgeStyle=orthogonalEdgeStyle;rounded=0;orthogonalLoop=1;jettySize=auto;html=1;exitX=1;exitY=0.5;exitDx=0;exitDy=0;" edge="1" parent="1" source="tjW-KprRPgz_tqJ3C2mB-6" target="tjW-KprRPgz_tqJ3C2mB-11">
          <mxGeometry relative="1" as="geometry" />
        </mxCell>
        <mxCell id="tjW-KprRPgz_tqJ3C2mB-6" value="输入框3" style="rounded=0;whiteSpace=wrap;html=1;" vertex="1" parent="1">
          <mxGeometry x="480" y="320" width="200" height="40" as="geometry" />
        </mxCell>
        <mxCell id="tjW-KprRPgz_tqJ3C2mB-15" style="edgeStyle=orthogonalEdgeStyle;rounded=0;orthogonalLoop=1;jettySize=auto;html=1;exitX=1;exitY=0.5;exitDx=0;exitDy=0;" edge="1" parent="1" source="tjW-KprRPgz_tqJ3C2mB-8" target="tjW-KprRPgz_tqJ3C2mB-12">
          <mxGeometry relative="1" as="geometry" />
        </mxCell>
        <mxCell id="tjW-KprRPgz_tqJ3C2mB-8" value="输入框2" style="rounded=0;whiteSpace=wrap;html=1;" vertex="1" parent="1">
          <mxGeometry x="480" y="210" width="200" height="40" as="geometry" />
        </mxCell>
        <mxCell id="tjW-KprRPgz_tqJ3C2mB-9" value="..." style="text;html=1;align=center;verticalAlign=middle;resizable=0;points=[];autosize=1;strokeColor=none;fillColor=none;" vertex="1" parent="1">
          <mxGeometry x="556" y="272" width="30" height="30" as="geometry" />
        </mxCell>
        <mxCell id="tjW-KprRPgz_tqJ3C2mB-10" value="IMKInputController实例1" style="rounded=0;whiteSpace=wrap;html=1;" vertex="1" parent="1">
          <mxGeometry x="790" y="150" width="200" height="40" as="geometry" />
        </mxCell>
        <mxCell id="tjW-KprRPgz_tqJ3C2mB-11" value="IMKInputController实例3" style="rounded=0;whiteSpace=wrap;html=1;" vertex="1" parent="1">
          <mxGeometry x="790" y="320" width="200" height="40" as="geometry" />
        </mxCell>
        <mxCell id="tjW-KprRPgz_tqJ3C2mB-12" value="IMKInputController实例2" style="rounded=0;whiteSpace=wrap;html=1;" vertex="1" parent="1">
          <mxGeometry x="790" y="210" width="200" height="40" as="geometry" />
        </mxCell>
        <mxCell id="tjW-KprRPgz_tqJ3C2mB-13" value="..." style="text;html=1;align=center;verticalAlign=middle;resizable=0;points=[];autosize=1;strokeColor=none;fillColor=none;" vertex="1" parent="1">
          <mxGeometry x="866" y="272" width="30" height="30" as="geometry" />
        </mxCell>
      </root>
    </mxGraphModel>
  </diagram>
</mxfile>
